<?xml version="1.0" encoding="UTF-8" standalone="no"?>
<!DOCTYPE svg PUBLIC "-//W3C//DTD SVG 1.1//EN" "http://www.w3.org/Graphics/SVG/1.1/DTD/svg11.dtd">
<svg width="100%" height="100%" viewBox="0 0 24 24" version="1.1" xmlns="http://www.w3.org/2000/svg" xmlns:xlink="http://www.w3.org/1999/xlink" xml:space="preserve" xmlns:serif="http://www.serif.com/" style="fill-rule:evenodd;clip-rule:evenodd;stroke-linejoin:round;stroke-miterlimit:2;">
    <path d="M22,2L22,22L2,22L2,2L22,2ZM24,0L0,0L0,24L24,24L24,0ZM20,7L12,7L12,8L20,8L20,7ZM20,12L12,12L12,13L20,13L20,12ZM20,17L12,17L12,18L20,18L20,17ZM9.484,5.696L8.774,5L6.221,7.607L4.682,6.155L3.984,6.865L6.234,9L9.484,5.696ZM9.484,10.696L8.774,10L6.222,12.607L4.683,11.155L3.985,11.864L6.234,14L9.484,10.696ZM9.484,15.696L8.774,15L6.222,17.607L4.683,16.155L3.985,16.864L6.234,19L9.484,15.696Z" style="fill:rgb(16,110,190);fill-rule:nonzero;"/>
</svg>
